<svg width="124" height="15" viewBox="0 0 124 15" fill="none" xmlns="http://www.w3.org/2000/svg">
<g clip-path="url(#clip0_10_3)">
<mask id="mask0_10_3" style="mask-type:alpha" maskUnits="userSpaceOnUse" x="0" y="0" width="125" height="16">
<rect width="124.224" height="15.0214" fill="black"/>
</mask>
<g mask="url(#mask0_10_3)">
<path d="M90.4877 0C89.6485 0 88.9902 0.47111 88.9902 1.07011V13.9532C88.9902 14.5503 89.6485 15.0214 90.4877 15.0214C91.2993 15.0214 91.9851 14.5313 91.9851 13.9532V1.07011C91.9851 0.490031 91.2993 0 90.4877 0" fill="#0B20B6"/>
<path d="M75.6963 0.0782998C75.514 0.0241414 75.3469 0 75.1295 0C74.5353 0 74.0524 0.184658 73.7814 0.657078L66.8067 11.1918L59.6202 0.635543C59.2928 0.195753 58.7494 0.0163154 58.1675 0.0163154C57.9997 0.0163154 57.8552 0.0378508 57.7101 0.0782998C57.1358 0.244036 56.752 0.642721 56.752 1.06489C56.752 1.17451 56.7719 1.33046 56.8744 1.47336L65.4317 14.3565C65.7048 14.7669 66.1175 15.0207 66.8095 15.0207C67.5015 15.0207 67.9087 14.7669 68.1872 14.3375L76.5307 1.47075C76.6125 1.34285 76.6545 1.19539 76.6545 1.04858C76.6545 0.614008 76.2879 0.241422 75.6963 0.0782998Z" fill="#0B20B6"/>
<path d="M44.5645 12.9046H34.8612C33.9402 12.9046 33.1588 12.3676 33.1588 11.7301V8.43234H44.2446C45.0542 8.43234 45.7152 7.95144 45.7152 7.36485C45.7152 6.78412 45.0542 6.31561 44.2446 6.31561H33.1588V3.29059C33.1588 2.66614 33.9402 2.13761 34.8612 2.13761H44.5645C45.3486 2.13761 46.0351 1.63844 46.0351 1.0675C46.0351 0.480894 45.3761 0 44.5645 0H34.8612C32.2722 0 30.166 1.47662 30.166 3.2906V11.7301C30.166 13.5447 32.2722 15.0214 34.8612 15.0214H44.5645C45.3761 15.0214 46.0598 14.5313 46.0598 13.9532C46.0598 13.3947 45.3603 12.9046 44.5645 12.9046" fill="#0B20B6"/>
<path d="M14.6385 0H4.74262C2.12679 0 0 1.47532 0 3.28929V13.9552C0 14.5522 0.65963 15.0214 1.50292 15.0214C2.31663 15.0214 3.00584 14.5326 3.00584 13.9552V3.28929C3.00584 2.66418 3.80166 2.13565 4.74262 2.13565H14.6385C15.5953 2.13565 16.4035 2.66418 16.4035 3.28929V6.30909C16.4035 6.94333 15.5953 7.481 14.6385 7.481H11.6127C11.3438 7.481 11.2138 7.5991 11.1539 7.69829C10.8492 8.20071 11.568 9.40851 11.6478 9.54096L14.4088 14.3741C14.6309 14.7604 15.1881 15.0214 15.7893 15.0214C16.019 15.0214 16.1806 14.9972 16.3313 14.9431C16.8974 14.7793 17.2942 14.3643 17.2942 13.9363C17.2942 13.7894 17.2523 13.6616 17.1718 13.55C16.4482 12.352 15.4398 10.647 14.8476 9.59316C17.3919 9.51225 19.3564 8.09174 19.3564 6.3091V3.28929C19.3564 1.47532 17.2392 7.8971e-06 14.6385 7.8971e-06" fill="#0B20B6"/>
<path d="M123.267 0.0782998C123.084 0.0241414 122.917 0 122.7 0C122.106 0 121.623 0.184658 121.352 0.657078L114.377 11.1918L107.191 0.635543C106.863 0.195753 106.32 0.0163154 105.738 0.0163154C105.57 0.0163154 105.426 0.0378508 105.28 0.0782998C104.706 0.244036 104.322 0.642721 104.322 1.06489C104.322 1.17451 104.342 1.33046 104.445 1.47336L113.002 14.3565C113.274 14.7669 113.688 15.0207 114.38 15.0207C115.072 15.0207 115.479 14.7669 115.758 14.3375L124.101 1.47075C124.183 1.34285 124.225 1.19539 124.225 1.04858C124.225 0.614008 123.858 0.241422 123.267 0.0782998" fill="#0B20B6"/>
</g>
</g>
<defs>
<clipPath id="clip0_10_3">
<rect width="124" height="15" fill="white"/>
</clipPath>
</defs>
</svg>
