<svg width="181" height="9" viewBox="0 0 181 9" fill="none" xmlns="http://www.w3.org/2000/svg">
<g clip-path="url(#clip0_962_2206)">
<path d="M53.7984 0.0502844C53.299 0.0502844 52.9082 0.330935 52.9082 0.687634V8.36428C52.9082 8.72004 53.299 9 53.7984 9C54.2805 9 54.6886 8.70843 54.6886 8.36428V0.687634C54.6886 0.341917 54.2805 0.0502844 53.7984 0.0502844Z" fill="#0B20B6"/>
<path d="M45.0036 0.0964403C44.8941 0.0644855 44.795 0.0502844 44.6665 0.0502844C44.3129 0.0502844 44.0256 0.159357 43.8652 0.441908L39.7171 6.71936L35.445 0.429275C35.2512 0.166128 34.9276 0.0602751 34.5819 0.0602751C34.4818 0.0602751 34.3967 0.0725775 34.3099 0.0964403C33.9686 0.19577 33.7402 0.433486 33.7402 0.685404C33.7402 0.749568 33.7525 0.843745 33.8132 0.927289L38.9009 8.60361C39.0631 8.84905 39.308 9 39.7198 9C40.1314 9 40.3729 8.84905 40.5388 8.59296L45.4993 0.927289C45.5482 0.850525 45.5722 0.762795 45.5722 0.674421C45.5722 0.416064 45.3544 0.194201 45.0036 0.0964403Z" fill="#0B20B6"/>
<path d="M26.4942 7.73873H20.725C20.1781 7.73873 19.7133 7.41845 19.7133 7.03947V5.07362H26.3043C26.7853 5.07362 27.1788 4.78786 27.1788 4.43855C27.1788 4.09183 26.7853 3.81284 26.3043 3.81284H19.7133V2.0102C19.7133 1.63798 20.1781 1.32416 20.725 1.32416H26.4942C26.9608 1.32416 27.3682 1.02678 27.3682 0.685899C27.3682 0.33556 26.9763 0.0501194 26.4942 0.0501194H20.725C19.1861 0.0501194 17.9336 0.930344 17.9336 2.0102V7.03947C17.9336 8.12029 19.1861 8.99951 20.725 8.99951H26.4942C26.9763 8.99951 27.3838 8.70826 27.3838 8.3638C27.3838 8.03126 26.9679 7.73873 26.4942 7.73873Z" fill="#0B20B6"/>
<path d="M8.70313 0.0502844H2.81985C1.26439 0.0502844 0 0.929543 0 2.01036V8.36493C0 8.72165 0.391834 9 0.893588 9C1.37736 9 1.78649 8.7094 1.78649 8.36493V2.01036C1.78649 1.63815 2.25974 1.32335 2.81985 1.32335H8.70313C9.27103 1.32335 9.75208 1.63815 9.75208 2.01036V3.80977C9.75208 4.18682 9.27103 4.50741 8.70313 4.50741H6.90442C6.74361 4.50741 6.6666 4.57837 6.63099 4.63772C6.45016 4.93671 6.87762 5.65596 6.92444 5.73498L8.56674 8.61425C8.69766 8.84551 9.0295 9 9.3874 9C9.52376 9 9.61946 8.98581 9.7097 8.95356C10.0459 8.85615 10.282 8.60844 10.282 8.35332C10.282 8.26656 10.2569 8.18979 10.2091 8.12464C9.77926 7.41055 9.17906 6.39392 8.82732 5.76659C10.34 5.71789 11.5084 4.87156 11.5084 3.80977V2.01036C11.5084 0.929543 10.2491 0.0502844 8.70313 0.0502844Z" fill="#0B20B6"/>
<path d="M73.2849 0.0964403C73.1753 0.0644855 73.0763 0.0502844 72.9477 0.0502844C72.5945 0.0502844 72.3078 0.159357 72.1464 0.441908L68 6.71936L63.7261 0.429275C63.5328 0.166128 63.2088 0.0602751 62.8631 0.0602751C62.7631 0.0602751 62.6772 0.0725775 62.591 0.0964403C62.2497 0.19577 62.0215 0.433486 62.0215 0.685404C62.0215 0.749568 62.0336 0.843745 62.0943 0.927289L67.1821 8.60361C67.3443 8.84905 67.5892 9 68.0011 9C68.4125 9 68.6542 8.84905 68.82 8.59296L73.7809 0.927289C73.8293 0.850525 73.8545 0.762795 73.8545 0.674421C73.8545 0.416064 73.6367 0.194201 73.2849 0.0964403Z" fill="#0B20B6"/>
<path d="M95.7311 1.37528V8.42331C95.7311 8.88905 95.4341 9 94.8652 9C94.3102 9 94.0141 8.88905 94.0141 8.42331V1.37528H90.1268C89.7134 1.37528 89.623 1.15435 89.623 0.712486C89.623 0.27 89.7134 0.0490456 90.1268 0.0490456H99.6314C100.044 0.0490456 100.135 0.27 100.135 0.712486C100.135 1.15435 100.044 1.37528 99.6314 1.37528H95.7311Z" fill="#0B20B6"/>
<path d="M116.312 6.70323V2.34547C116.312 1.80232 115.648 1.38271 114.129 1.38271H110.455C108.936 1.38271 108.274 1.80232 108.274 2.34547V6.70323C108.274 7.23477 108.936 7.66599 110.455 7.66599H114.129C115.648 7.66599 116.312 7.23477 116.312 6.70323ZM110.403 9C107.845 9 106.559 8.23398 106.559 6.70323V2.34547C106.559 0.802461 107.845 0.0490456 110.403 0.0490456H114.182C116.74 0.0490456 118.025 0.802461 118.025 2.34547V6.70323C118.025 8.23398 116.74 9 114.182 9H110.403Z" fill="#0B20B6"/>
<path d="M133.75 0.982436C133.582 0.835043 133.479 0.650889 133.479 0.490871C133.479 0.233504 133.75 0.000329971 134.409 0.000329971C134.784 0.000329971 134.951 0.0735693 135.132 0.233504L139.276 4.06393L143.41 0.233504C143.577 0.0735693 143.759 0.000329971 144.133 0.000329971C144.778 0.000329971 145.062 0.221284 145.062 0.490871C145.062 0.650889 144.959 0.835043 144.791 0.982436L140.129 5.26699V8.42331C140.129 8.88905 139.832 9 139.264 9C138.709 9 138.412 8.88905 138.412 8.42331V5.26699L133.75 0.982436Z" fill="#0B20B6"/>
<path d="M161.24 6.70323V2.34547C161.24 1.80232 160.578 1.38271 159.058 1.38271H155.383C153.864 1.38271 153.202 1.80232 153.202 2.34547V6.70323C153.202 7.23477 153.864 7.66599 155.383 7.66599H159.058C160.578 7.66599 161.24 7.23477 161.24 6.70323ZM155.331 9C152.774 9 151.488 8.23398 151.488 6.70323V2.34547C151.488 0.802461 152.774 0.0490456 155.331 0.0490456H159.11C161.668 0.0490456 162.953 0.802461 162.953 2.34547V6.70323C162.953 8.23398 161.668 9 159.11 9H155.331Z" fill="#0B20B6"/>
<path d="M173.199 8.95117C170.655 8.95117 169.377 8.18935 169.377 6.66698V0.577188C169.377 0.11084 169.675 0.000527382 170.23 0.000527382C170.798 0.000527382 171.095 0.11084 171.095 0.577188V6.66698C171.095 7.19561 171.741 7.62458 173.25 7.62458H177.126C178.637 7.62458 179.282 7.19561 179.282 6.66698V0.577188C179.282 0.11084 179.579 0.000527382 180.148 0.000527382C180.703 0.000527382 180.999 0.11084 180.999 0.577188V6.66698C180.999 8.18935 179.721 8.95117 177.177 8.95117H173.199Z" fill="#0B20B6"/>
</g>
<defs>
<clipPath id="clip0_962_2206">
<rect width="181" height="9" fill="white"/>
</clipPath>
</defs>
</svg>
