<svg width="14" height="14" viewBox="0 0 14 14" fill="none" xmlns="http://www.w3.org/2000/svg">
<path d="M8.25195 9.68896L9.68892 8.25199L13.9998 12.5629L12.5629 13.9999L8.25195 9.68896Z" fill="#0B20B6"/>
<path fill-rule="evenodd" clip-rule="evenodd" d="M6.09655 10.1609C8.34124 10.1609 10.1609 8.34124 10.1609 6.09655C10.1609 3.85186 8.34124 2.03218 6.09655 2.03218C3.85186 2.03218 2.03218 3.85186 2.03218 6.09655C2.03218 8.34124 3.85186 10.1609 6.09655 10.1609ZM6.09655 12.1931C9.46358 12.1931 12.1931 9.46358 12.1931 6.09655C12.1931 2.72952 9.46358 0 6.09655 0C2.72952 0 0 2.72952 0 6.09655C0 9.46358 2.72952 12.1931 6.09655 12.1931Z" fill="#0B20B6"/>
</svg>
